# xmcd
#
# Track frame offsets:
# 150
# 15844
# 31914
# 50160
# 65662
# 83088
# 103133
# 119757
# 137747
# 154879
# 169952
# 191688
# 208614
# 224359
# 247374
# 264069
# 280940
# 301594
# 317627
# 332966
#
# Disc length: 4659 seconds
#
#
# Revision: 0
# Processed by: cddbd v1.4PL0 Copyright (c) Steve Scherf et al.
# Submitted via: FreeRIP 2.11 
#
DISCID=2b123114
DTITLE=Los Canos - Los Canos
DYEAR=2003
DGENRE=Latin
TTITLE0=A lo mejor me querías
TTITLE1=A Mi Lado Mi Vida
TTITLE2=Adriana
TTITLE3=Agua de luna
TTITLE4=Baila Morena
TTITLE5=Cartitas De Amor
TTITLE6=Dulce niña
TTITLE7=El Barrio
TTITLE8=Ella Es (Con Susanna)
TTITLE9=Huellas en mi corazón
TTITLE10=Lo Que Es Echarte De Menos
TTITLE11=Melina
TTITLE12=Nena, dime por qué
TTITLE13=Niña piensa en ti (Remix)
TTITLE14=Niña piensa en ti
TTITLE15=Qué puedo hacer
TTITLE16=Sentir Como Yo Siento
TTITLE17=Si tú bailas para mi
TTITLE18=Sin decirnos nada
TTITLE19=No te cambio por ninguna
EXTD=by toltecus
EXTT0=
EXTT1=
EXTT2=
EXTT3=
EXTT4=
EXTT5=
EXTT6=
EXTT7=
EXTT8=
EXTT9=
EXTT10=
EXTT11=
EXTT12=
EXTT13=
EXTT14=
EXTT15=
EXTT16=
EXTT17=
EXTT18=
EXTT19=
PLAYORDER=
